<?xml version="1.0" encoding="utf-8"?>
<!-- Generated by IcoMoon.io -->
<svg version="1.1" xmlns="http://www.w3.org/2000/svg" xmlns:xlink="http://www.w3.org/1999/xlink" width="624" height="24" viewBox="0 0 624 24">
<svg id="icon-envelope" width="24" height="24" viewBox="0 0 24 24" x="0" y="0">
<path d="M1 6v13h21v-13h-21zM3 17v-7.866l15.544 7.866h-15.544zM20 15.949l-6.378-3.407 6.378-3.408v6.815zM12.088 11.408l-6.706-3.408h13.195l-6.489 3.408z"></path>
</svg>
<svg id="icon-heart" width="24" height="24" viewBox="0 0 24 24" x="40" y="0">
<path d="M12 19.654l-0.035 0.043-7.965-10.197c-0.363-0.458-1-1.011-1-2.268 0-2.206 1.795-4 4-4 2.206 0 5 1.794 5 4v-3.313c-1.075-1.618-2.915-2.687-5-2.687-3.309 0-6 2.691-6 6 0 2.056 1 3 1.258 3.669l9.742 11.822v-3.069zM12 19.654l0.035 0.043 7.965-10.197c0.363-0.458 1-1.011 1-2.268 0-2.206-1.795-4-4-4s-5 1.794-5 4v-3.313c1.076-1.618 2.916-2.687 5-2.687 3.309 0 6 2.691 6 6 0 2.056-1 3-1.258 3.669l-9.742 11.822v-3.069z"></path>
</svg>
<svg id="icon-book" width="24" height="24" viewBox="0 0 24 24" x="80" y="0">
<path d="M9.946 9.363c-1.693-1.309-3.755-2.696-7-2.959l7 2.959zM9.946 12.363c-1.693-1.309-3.755-2.696-7-2.959l7 2.959zM6.945 13.451c-1.115-0.523-2.416-0.919-3.999-1.047l3.999 1.047zM13.054 9.363l7-2.959c-3.245 0.263-5.307 1.651-7 2.959zM13.054 12.363l7-2.959c-3.245 0.263-5.307 1.651-7 2.959zM20.054 12.404c-1.583 0.128-2.884 0.523-3.999 1.047l3.999-1.047zM22.054 0.363c-4.38 0-8.389 2.045-10.415 3.664h-0.277c-2.027-1.619-6.036-3.664-10.416-3.664h-0.946v19h0.946c3.236 0 6.823 1.246 8.418 2.449 0.474 0.359 0.907 0.734 1.288 1.116l0.801 0.735h0.094l0.801-0.735c0.381-0.382 0.814-0.757 1.288-1.116 1.595-1.203 5.182-2.449 8.418-2.449h0.946v-19h-0.946zM11 20.521c0-0.102-0.244-0.205-0.376-0.305-1.673-1.261-5.624-2.596-8.624-2.82v-14.992c4 0.306 7.263 2.249 8.681 3.662l0.271 0.297h0.048v14.158zM21 17.396c-3 0.224-6.951 1.559-8.624 2.82-0.132 0.1-0.376 0.204-0.376 0.305v-14.158h0.049l0.271-0.297c1.417-1.413 4.68-3.356 8.68-3.662v14.992z"></path>
</svg>
<svg id="icon-users" width="24" height="24" viewBox="0 0 24 24" x="120" y="0">
<path d="M23.588 19.96c-1.459-3.359-4.841-5.31-7.296-6.144 1.504-1.229 2.392-3.547 2.392-6.583 0-4.035-3.373-5.102-5.157-5.102-0.287 0-0.617 0.032-0.965 0.095-0.958-0.861-2.225-1.226-3.233-1.226-1.864 0-4.637 1.222-4.637 4.587 0 2.678 0.782 4.729 2.109 5.833-2.088 0.546-4.932 1.894-6.389 5.249l-0.412 0.949 0.963 0.38c0.086 0.034 1.27 0.488 3.062 0.889-0.205 0.348-0.398 0.699-0.561 1.073l-0.413 0.949 0.963 0.38c0.178 0.069 4.401 1.711 9.512 1.711s9.334-1.642 9.512-1.711l0.962-0.38-0.412-0.949zM16.684 7.234c0 3.431-1.21 5.562-3.157 5.562s-3.157-2.131-3.157-5.562c0-2.92 2.635-3.096 3.152-3.102 0.527 0.006 3.162 0.182 3.162 3.102zM9.329 3c0.101 0 0.501 0.017 0.958 0.165-1.070 0.77-1.917 2.046-1.917 4.069 0 1.099 0.119 2.102 0.338 2.996-1.472-0.469-2.016-2.615-2.016-4.643 0-2.431 2.202-2.582 2.637-2.587zM9.329 13.046c0.012 0 0.29 0.006 0.726 0.062 0.436 0.538 0.949 0.954 1.527 1.239-1.574 0.315-3.816 1.067-5.634 2.865-1.31-0.211-2.432-0.494-3.185-0.72 2.147-3.38 6.374-3.445 6.566-3.446zM13.526 21c-3.276 0-6.567-0.75-8.071-1.214 0.237-0.687 0.986-1.595 1.246-1.907 2.793-2.705 6.784-2.762 6.822-2.762 0.008 0 0.729 0.011 1.755 0.216 1.782 0.45 4.55 2.095 5.974 4.451-1.503 0.464-4.445 1.216-7.726 1.216z"></path>
</svg>
<svg id="icon-diamond" width="24" height="24" viewBox="0 0 24 24" x="160" y="0">
<path d="M17.408 1.967h-10.816l-6.592 6.533 12 13.533 12-13.533-6.592-6.533zM21.594 9.028l-0.014-0.061h-8.902l4.268-4.609 4.648 4.67zM10.398 17.386l-7.023-7.419h4.625l-0.465 0.223 2.863 7.196zM8.537 9.967h6.924l-3.461 8.654-3.463-8.654zM16 9.967h4.623l-7.023 7.419 2.863-7.196-0.463-0.223zM12 8.229l-3.914-4.262h7.826l-3.912 4.262zM7.053 4.396l4.268 4.571h-8.903l-0.012 0.023 4.647-4.594z"></path>
</svg>
</svg>
